<svg id="Layer_2" data-name="Layer 2" xmlns="http://www.w3.org/2000/svg" width="232.241" height="55.354" viewBox="0 0 232.241 55.354">
  <g id="Layer_1" data-name="Layer 1">
    <path id="path_54" data-name="path 54" d="M80,45.028V20.92h4.247v3.974a8.168,8.168,0,0,1,2.726-3.341,7.623,7.623,0,0,1,4.458-1.2,9.988,9.988,0,0,1,3.174.475,6.154,6.154,0,0,1,2.462,1.512,6.937,6.937,0,0,1,1.609,2.638,11.9,11.9,0,0,1,.58,3.965V45.028H95.026V29.422a7.412,7.412,0,0,0-1.02-4.167c-.677-1-1.925-1.512-3.763-1.512a5.381,5.381,0,0,0-4.29,2.013,7.034,7.034,0,0,0-1.257,2.295,8.985,8.985,0,0,0-.448,2.893V45.011Z" transform="translate(-9.664 -2.457)" fill="#fff"/>
    <path id="path_55" data-name="path 55" d="M108.33,32.987a18,18,0,0,1,.686-5.091,11.016,11.016,0,0,1,2.031-4,9.557,9.557,0,0,1,7.684-3.517,10.6,10.6,0,0,1,4.519.879,8.871,8.871,0,0,1,3.191,2.453,10.779,10.779,0,0,1,1.908,3.666,15.554,15.554,0,0,1,.642,4.519v2.26h-16.16V36.75a5.275,5.275,0,0,0,.492,2.33,5.2,5.2,0,0,0,1.354,1.758,5.961,5.961,0,0,0,1.908,1.055,6.647,6.647,0,0,0,2.189.36A6.735,6.735,0,0,0,122.7,41.1a4.73,4.73,0,0,0,1.881-3.675h4.229a7.912,7.912,0,0,1-1.011,3.455,8.687,8.687,0,0,1-2.26,2.576,10.718,10.718,0,0,1-3.13,1.635,11.614,11.614,0,0,1-3.675.58,10.322,10.322,0,0,1-4.537-1.011,9.214,9.214,0,0,1-3.262-2.638,11.219,11.219,0,0,1-1.943-3.965,19.281,19.281,0,0,1-.659-5.073Zm4.5-2.224h11.8V29.426a5.723,5.723,0,0,0-.475-2.374,5.275,5.275,0,0,0-1.292-1.758,5.521,5.521,0,0,0-1.89-1.117,6.6,6.6,0,0,0-2.242-.387,6.515,6.515,0,0,0-2.233.387,5.7,5.7,0,0,0-1.89,1.117,5.187,5.187,0,0,0-1.292,1.785,5.724,5.724,0,0,0-.475,2.374Z" transform="translate(-13.086 -2.461)" fill="#fff"/>
    <path id="path_56" data-name="path 56" d="M138.47,44V11.85h4.255V44Zm4.3-13.478,9.46-10.63h5.17l-9.671,10.63L158.094,44h-4.915Z" transform="translate(-16.727 -1.431)" fill="#fff"/>
    <path id="path_57" data-name="path 57" d="M164.24,23.526V19.895h4.009V11.85H172.5v8.045h5.5v3.622h-5.5V40.354h5.5V44h-9.742V23.526Z" transform="translate(-19.84 -1.431)" fill="#fff"/>
    <path id="path_58" data-name="path 58" d="M183.69,32.984a18.674,18.674,0,0,1,.659-5.091,10.981,10.981,0,0,1,2-4,9.548,9.548,0,0,1,3.385-2.594,12.5,12.5,0,0,1,9.557,0,9.337,9.337,0,0,1,3.367,2.594,10.982,10.982,0,0,1,2,4,18.332,18.332,0,0,1,.668,5.091,18.217,18.217,0,0,1-.668,5.1,11.025,11.025,0,0,1-2,3.939,9.241,9.241,0,0,1-3.376,2.638,12.476,12.476,0,0,1-9.548,0,9.5,9.5,0,0,1-3.385-2.638,11.025,11.025,0,0,1-2-3.965,18.561,18.561,0,0,1-.659-5.073Zm4.5,3.763a4.783,4.783,0,0,0,.519,2.242,5.275,5.275,0,0,0,1.407,1.688,6.489,6.489,0,0,0,2,1.108,7.508,7.508,0,0,0,4.862,0,6.7,6.7,0,0,0,2-1.108,5.328,5.328,0,0,0,1.363-1.714,4.783,4.783,0,0,0,.519-2.242V29.239a4.748,4.748,0,0,0-.519-2.233,5.5,5.5,0,0,0-1.363-1.758,6.374,6.374,0,0,0-2-1.125,7.482,7.482,0,0,0-4.853,0,6.225,6.225,0,0,0-2.013,1.2,5.4,5.4,0,0,0-1.372,1.758,4.748,4.748,0,0,0-.519,2.233Z" transform="translate(-22.19 -2.458)" fill="#fff"/>
    <path id="path_59" data-name="path 59" d="M211.12,21h4.6l6.04,19.043h.185L228.1,21h4.4L223.86,45.1h-4.053Z" transform="translate(-25.503 -2.537)" fill="#fff"/>
    <path id="path_60" data-name="path 60" d="M238.21,38.4a7.1,7.1,0,0,1,1.758-4.862,7.913,7.913,0,0,1,5.407-2.347l7.842-.73V28.527a6.533,6.533,0,0,0-.352-2.33,3.517,3.517,0,0,0-1.02-1.468,3.912,3.912,0,0,0-1.583-.765,9.205,9.205,0,0,0-2.049-.22,5.855,5.855,0,0,0-3.613,1.02,3.912,3.912,0,0,0-1.3,3.35h-4.247a6.656,6.656,0,0,1,.739-3.13,7.992,7.992,0,0,1,1.978-2.462,8.888,8.888,0,0,1,2.91-1.6,11.2,11.2,0,0,1,3.614-.571,12.555,12.555,0,0,1,3.614.5,8.511,8.511,0,0,1,2.91,1.486,6.673,6.673,0,0,1,1.917,2.55,9.249,9.249,0,0,1,.677,3.684V41.38h3.6v3.649h-7.165l-.088-4.458h-.185a7.491,7.491,0,0,1-2.928,3.8,8.458,8.458,0,0,1-4.713,1.24,9.047,9.047,0,0,1-3.253-.554,6.858,6.858,0,0,1-2.523-1.644,6.585,6.585,0,0,1-1.433-2.268,7.324,7.324,0,0,1-.519-2.743Zm4.5.58a2.717,2.717,0,0,0,1.152,2.435,5.627,5.627,0,0,0,3.183.774,5.521,5.521,0,0,0,4.545-2.057,8.177,8.177,0,0,0,1.662-5.275V33.731l-8.563.791c-.879.062-1.424.29-1.644.695a3.306,3.306,0,0,0-.334,1.635Z" transform="translate(-28.775 -2.458)" fill="#fff"/>
    <path id="path_61" data-name="path 61" d="M36.092,55.354,6.85,11.139,12.881,0l31.59,47.785Z" transform="translate(-0.827)" fill="#27ad3d"/>
    <path id="path_62" data-name="path 62" d="M12.054,55.354,0,51.838V3.517L12.054,0Z" fill="#39d159"/>
    <path id="path_63" data-name="path 63" d="M52.155,51.838,40.11,55.354V0L52.155,3.517Z" transform="translate(-4.845)" fill="#39d159"/>
  </g>
</svg>
